<svg xmlns="http://www.w3.org/2000/svg" xmlns:xlink="http://www.w3.org/1999/xlink" style="display: none;">
  <symbol id="icon-Convert" viewBox="0 0 24 24"><rect id="Convert" width="24.000000" height="24.000000" x="0.000000" y="0.000000" /> <path id="Vector" d="M2.09961 2C2.65189 2 3.09961 2.44772 3.09961 3L3.09961 7.43632C4.75764 4.20928 8.11959 2 11.9996 2C16.3552 2 20.058 4.78413 21.4303 8.66675C21.6144 9.18747 21.3414 9.75879 20.8207 9.94284C20.3 10.1269 19.7287 9.85396 19.5446 9.33325C18.4459 6.22472 15.4813 4 11.9996 4C9.03957 4 6.45326 5.60799 5.06955 8L8.09957 8C8.65186 8 9.09957 8.44772 9.09957 9C9.09957 9.55228 8.65186 10 8.09957 10L2.09961 10C1.54732 10 1.09961 9.55228 1.09961 9L1.09961 3C1.09961 2.44772 1.54732 2 2.09961 2ZM4.45273 14.6668C4.26868 14.146 3.69736 13.8731 3.17664 14.0572C2.65593 14.2412 2.383 14.8125 2.56705 15.3332C3.93936 19.2159 7.64215 22 11.9978 22C15.8778 22 19.2397 19.7907 20.8977 16.5637L20.8977 21C20.8977 21.5523 21.3455 22 21.8977 22C22.45 22 22.8977 21.5523 22.8977 21L22.8977 15C22.8977 14.4477 22.45 14 21.8977 14L15.8978 14C15.3455 14 14.8978 14.4477 14.8978 15C14.8978 15.5523 15.3455 16 15.8978 16L18.9278 16C17.5441 18.392 14.9578 20 11.9978 20C8.51608 20 5.55144 17.7753 4.45273 14.6668Z" fill="rgb(65.6094,68.8538,80.75)" fill-rule="evenodd" /></symbol>
  <symbol id="icon-img-1" viewBox="0 0 162.433 176.342"><rect id="dots" width="143.000000" height="105.000000" x="0.000000" y="0.000000" transform="matrix(0.5,0.866025,-0.866025,0.5,90.9326,0)" /> <path id="Vector" d="M4.08016 2.03789C4.08016 3.2024 3.20584 4.07579 2.04008 4.07579C0.874321 4.07579 0 3.2024 0 2.03789C0 0.873381 0.874321 0 2.04008 0C3.20584 0 4.08016 0.970424 4.08016 2.03789Z" fill="rgb(255,207,45)" fill-rule="nonzero" transform="matrix(0.5,0.866025,-0.866025,0.5,65.9722,14.4111)" /> <path id="Vector" d="M4.08016 2.03789C4.08016 3.2024 3.20584 4.07579 2.04008 4.07579C0.874321 4.07579 0 3.2024 0 2.03789C0 0.873381 0.874321 0 2.04008 0C3.10869 3.44764e-15 4.08016 0.970424 4.08016 2.03789Z" fill="rgb(255,207,45)" fill-rule="nonzero" transform="matrix(0.5,0.866025,-0.866025,0.5,74.667,29.4707)" /> <path id="Vector" d="M4.08016 2.03789C4.08016 3.2024 3.20584 4.07579 2.04008 4.07579C0.874319 4.07579 0 3.2024 0 2.03789C0 0.873381 0.874319 0 2.04008 0C3.20584 3.44764e-15 4.08016 0.970424 4.08016 2.03789Z" fill="rgb(255,207,45)" fill-rule="nonzero" transform="matrix(0.5,0.866025,-0.866025,0.5,83.313,44.4463)" /> <path id="Vector" d="M4.08016 2.03789C4.08016 3.2024 3.20584 4.07579 2.04008 4.07579C0.874323 4.07579 0 3.2024 0 2.03789C0 0.873381 0.874323 0 2.04008 0C3.20584 0 4.08016 0.970424 4.08016 2.03789Z" fill="rgb(255,207,45)" fill-rule="nonzero" transform="matrix(0.5,0.866025,-0.866025,0.5,92.0078,59.5059)" /> <path id="Vector" d="M4.08015 2.03789C4.08015 3.2024 3.20584 4.07579 2.04008 4.07579C0.874318 4.07579 0 3.2024 0 2.03789C0 0.873381 0.874318 0 2.04008 0C3.10869 3.44764e-15 4.08015 0.970424 4.08015 2.03789Z" fill="rgb(255,207,45)" fill-rule="nonzero" transform="matrix(0.5,0.866025,-0.866025,0.5,100.702,74.5645)" /> <path id="Vector" d="M4.08015 2.03789C4.08015 3.2024 3.20584 4.07579 2.04008 4.07579C0.874318 4.07579 0 3.2024 0 2.03789C0 0.873381 0.874318 0 2.04008 0C3.20584 0 4.08015 0.970424 4.08015 2.03789Z" fill="rgb(255,207,45)" fill-rule="nonzero" transform="matrix(0.5,0.866025,-0.866025,0.5,109.397,89.624)" /> <path id="Vector" d="M4.08016 2.03789C4.08016 3.2024 3.20584 4.07579 2.04008 4.07579C0.874325 4.07579 0 3.2024 0 2.03789C0 0.873381 0.874325 0 2.04008 0C3.20584 0 4.08016 0.970424 4.08016 2.03789Z" fill="rgb(255,207,45)" fill-rule="nonzero" transform="matrix(0.5,0.866025,-0.866025,0.5,118.043,104.6)" /> <path id="Vector" d="M4.08016 2.03789C4.08016 3.2024 3.20584 4.07579 2.04008 4.07579C0.874318 4.07579 0 3.2024 0 2.03789C0 0.873381 0.874318 0 2.04008 0C3.20584 3.44764e-15 4.08016 0.970424 4.08016 2.03789Z" fill="rgb(255,207,45)" fill-rule="nonzero" transform="matrix(0.5,0.866025,-0.866025,0.5,126.738,119.659)" /> <path id="Vector" d="M4.08015 2.03789C4.08015 3.2024 3.20584 4.07579 2.04008 4.07579C0.874325 4.07579 0 3.2024 0 2.03789C0 0.873381 0.874325 0 2.04008 0C3.1087 3.44764e-15 4.08015 0.970424 4.08015 2.03789Z" fill="rgb(255,207,45)" fill-rule="nonzero" transform="matrix(0.5,0.866025,-0.866025,0.5,135.432,134.719)" /> <path id="Vector" d="M4.08016 2.0379C4.08016 3.20241 3.20584 4.07579 2.04008 4.07579C0.874321 4.07579 0 3.20241 0 2.0379C0 0.873385 0.874321 0 2.04008 0C3.20584 0 4.08016 0.873385 4.08016 2.0379Z" fill="rgb(255,207,45)" fill-rule="nonzero" transform="matrix(0.5,0.866025,-0.866025,0.5,53.4502,21.6406)" /> <path id="Vector" d="M4.08016 2.0379C4.08016 3.20241 3.20584 4.07579 2.04008 4.07579C0.874321 4.07579 0 3.20241 0 2.0379C0 0.873385 0.874321 0 2.04008 0C3.10869 0 4.08016 0.873385 4.08016 2.0379Z" fill="rgb(255,207,45)" fill-rule="nonzero" transform="matrix(0.5,0.866025,-0.866025,0.5,62.145,36.7002)" /> <path id="Vector" d="M4.08016 2.0379C4.08016 3.20241 3.20584 4.07579 2.04008 4.07579C0.874319 4.07579 0 3.20241 0 2.0379C0 0.873385 0.874319 0 2.04008 0C3.20584 0 4.08016 0.873385 4.08016 2.0379Z" fill="rgb(255,207,45)" fill-rule="nonzero" transform="matrix(0.5,0.866025,-0.866025,0.5,70.791,51.6758)" /> <path id="Vector" d="M4.08016 2.0379C4.08016 3.20241 3.20584 4.07579 2.04008 4.07579C0.874323 4.07579 0 3.20241 0 2.0379C0 0.873385 0.874323 0 2.04008 0C3.20584 0 4.08016 0.873385 4.08016 2.0379Z" fill="rgb(255,207,45)" fill-rule="nonzero" transform="matrix(0.5,0.866025,-0.866025,0.5,79.4858,66.7354)" /> <path id="Vector" d="M4.08015 2.0379C4.08015 3.20241 3.20584 4.07579 2.04008 4.07579C0.874318 4.07579 0 3.20241 0 2.0379C0 0.873385 0.874318 0 2.04008 0C3.10869 0 4.08015 0.873385 4.08015 2.0379Z" fill="rgb(255,207,45)" fill-rule="nonzero" transform="matrix(0.5,0.866025,-0.866025,0.5,88.1802,81.7949)" /> <path id="Vector" d="M4.08015 2.0379C4.08015 3.20241 3.20584 4.07579 2.04008 4.07579C0.874318 4.07579 0 3.20241 0 2.0379C0 0.873385 0.874318 0 2.04008 0C3.20584 0 4.08015 0.873385 4.08015 2.0379Z" fill="rgb(255,207,45)" fill-rule="nonzero" transform="matrix(0.5,0.866025,-0.866025,0.5,96.875,96.8545)" /> <path id="Vector" d="M4.08016 2.0379C4.08016 3.20241 3.20584 4.07579 2.04008 4.07579C0.874325 4.07579 0 3.20241 0 2.0379C0 0.873385 0.874325 0 2.04008 0C3.20584 0 4.08016 0.873385 4.08016 2.0379Z" fill="rgb(255,207,45)" fill-rule="nonzero" transform="matrix(0.5,0.866025,-0.866025,0.5,105.521,111.829)" /> <path id="Vector" d="M4.08016 2.0379C4.08016 3.20241 3.20584 4.07579 2.04008 4.07579C0.874318 4.07579 0 3.20241 0 2.0379C0 0.873385 0.874318 0 2.04008 0C3.20584 0 4.08016 0.873385 4.08016 2.0379Z" fill="rgb(255,207,45)" fill-rule="nonzero" transform="matrix(0.5,0.866025,-0.866025,0.5,114.216,126.889)" /> <path id="Vector" d="M4.08015 2.0379C4.08015 3.20241 3.20584 4.07579 2.04008 4.07579C0.874325 4.07579 0 3.20241 0 2.0379C0 0.873385 0.874325 0 2.04008 0C3.1087 0 4.08015 0.873385 4.08015 2.0379Z" fill="rgb(255,207,45)" fill-rule="nonzero" transform="matrix(0.5,0.866025,-0.866025,0.5,122.91,141.948)" /> <path id="Vector" d="M4.08016 2.03789C4.08016 3.2024 3.20584 4.07579 2.04008 4.07579C0.874321 4.07579 0 3.2024 0 2.03789C0 0.873382 0.874321 0 2.04008 0C3.20584 0 4.08016 0.873382 4.08016 2.03789Z" fill="rgb(255,207,45)" fill-rule="nonzero" transform="matrix(0.5,0.866025,-0.866025,0.5,90.9326,0)" /> <path id="Vector" d="M4.08016 2.03789C4.08016 3.2024 3.20584 4.07579 2.04008 4.07579C0.874321 4.07579 0 3.2024 0 2.03789C0 0.873382 0.874321 0 2.04008 0C3.10869 0 4.08016 0.873382 4.08016 2.03789Z" fill="rgb(255,207,45)" fill-rule="nonzero" transform="matrix(0.5,0.866025,-0.866025,0.5,99.6272,15.0596)" /> <path id="Vector" d="M4.08016 2.03789C4.08016 3.2024 3.20584 4.07579 2.04008 4.07579C0.874319 4.07579 0 3.2024 0 2.03789C0 0.873382 0.971465 0 2.04008 0C3.20584 0 4.08016 0.873382 4.08016 2.03789Z" fill="rgb(255,207,45)" fill-rule="nonzero" transform="matrix(0.5,0.866025,-0.866025,0.5,108.273,30.0352)" /> <path id="Vector" d="M4.08016 2.03789C4.08016 3.2024 3.20584 4.07579 2.04008 4.07579C0.874323 4.07579 0 3.2024 0 2.03789C0 0.873382 0.971469 0 2.04008 0C3.1087 0 4.08016 0.873382 4.08016 2.03789Z" fill="rgb(255,207,45)" fill-rule="nonzero" transform="matrix(0.5,0.866025,-0.866025,0.5,116.968,45.0947)" /> <path id="Vector" d="M4.08015 2.03789C4.08015 3.2024 3.20584 4.07579 2.04008 4.07579C0.874318 4.07579 0 3.2024 0 2.03789C0 0.873382 0.874318 0 2.04008 0C3.10869 0 4.08015 0.873382 4.08015 2.03789Z" fill="rgb(255,207,45)" fill-rule="nonzero" transform="matrix(0.5,0.866025,-0.866025,0.5,125.663,60.1543)" /> <path id="Vector" d="M4.08015 2.03789C4.08015 3.2024 3.20584 4.07579 2.04008 4.07579C0.874318 4.07579 0 3.2024 0 2.03789C0 0.873382 0.874318 0 2.04008 0C3.20584 0 4.08015 0.873382 4.08015 2.03789Z" fill="rgb(255,207,45)" fill-rule="nonzero" transform="matrix(0.5,0.866025,-0.866025,0.5,134.357,75.2139)" /> <path id="Vector" d="M4.08016 2.03789C4.08016 3.2024 3.20584 4.07579 2.04008 4.07579C0.874325 4.07579 0 3.2024 0 2.03789C0 0.873382 0.874325 0 2.04008 0C3.20584 0 4.08016 0.873382 4.08016 2.03789Z" fill="rgb(255,207,45)" fill-rule="nonzero" transform="matrix(0.5,0.866025,-0.866025,0.5,143.003,90.1895)" /> <path id="Vector" d="M4.08016 2.03789C4.08016 3.2024 3.20584 4.07579 2.04008 4.07579C0.874318 4.07579 0 3.2024 0 2.03789C0 0.873382 0.874318 0 2.04008 0C3.20584 0 4.08016 0.873382 4.08016 2.03789Z" fill="rgb(255,207,45)" fill-rule="nonzero" transform="matrix(0.5,0.866025,-0.866025,0.5,151.698,105.249)" /> <path id="Vector" d="M4.08015 2.03789C4.08015 3.2024 3.20584 4.07579 2.04008 4.07579C0.874325 4.07579 0 3.2024 0 2.03789C0 0.873382 0.874325 0 2.04008 0C3.1087 0 4.08015 0.873382 4.08015 2.03789Z" fill="rgb(255,207,45)" fill-rule="nonzero" transform="matrix(0.5,0.866025,-0.866025,0.5,160.393,120.309)" /> <path id="Vector" d="M4.08016 2.03789C4.08016 3.2024 3.20584 4.07578 2.04008 4.07578C0.874321 4.07578 0 3.10536 0 2.03789C0 0.873383 0.874321 0 2.04008 0C3.20584 0 4.08016 0.873383 4.08016 2.03789Z" fill="rgb(255,207,45)" fill-rule="nonzero" transform="matrix(0.5,0.866025,-0.866025,0.5,78.4104,7.22949)" /> <path id="Vector" d="M4.08016 2.03789C4.08016 3.2024 3.20584 4.07578 2.04008 4.07578C0.874321 4.07578 0 3.2024 0 2.03789C0 0.873383 0.874321 0 2.04008 0C3.10869 0 4.08016 0.873383 4.08016 2.03789Z" fill="rgb(255,207,45)" fill-rule="nonzero" transform="matrix(0.5,0.866025,-0.866025,0.5,87.105,22.2891)" /> <path id="Vector" d="M4.08016 2.03789C4.08016 3.2024 3.20584 4.07578 2.04008 4.07578C0.874319 4.07578 0 3.2024 0 2.03789C0 0.873383 0.874319 0 2.04008 0C3.20584 0 4.08016 0.873383 4.08016 2.03789Z" fill="rgb(255,207,45)" fill-rule="nonzero" transform="matrix(0.5,0.866025,-0.866025,0.5,95.751,37.2646)" /> <path id="Vector" d="M4.08016 2.03789C4.08016 3.2024 3.20584 4.07578 2.04008 4.07578C0.874323 4.07578 0 3.2024 0 2.03789C0 0.873383 0.874323 0 2.04008 0C3.20584 0 4.08016 0.873383 4.08016 2.03789Z" fill="rgb(255,207,45)" fill-rule="nonzero" transform="matrix(0.5,0.866025,-0.866025,0.5,104.446,52.3242)" /> <path id="Vector" d="M4.08015 2.03789C4.08015 3.2024 3.20584 4.07578 2.04008 4.07578C0.874318 4.07578 0 3.2024 0 2.03789C0 0.873383 0.874318 0 2.04008 0C3.10869 0 4.08015 0.873383 4.08015 2.03789Z" fill="rgb(255,207,45)" fill-rule="nonzero" transform="matrix(0.5,0.866025,-0.866025,0.5,113.14,67.3838)" /> <path id="Vector" d="M4.08015 2.03789C4.08015 3.2024 3.20584 4.07578 2.04008 4.07578C0.874318 4.07578 0 3.2024 0 2.03789C0 0.873383 0.874318 0 2.04008 0C3.20584 0 4.08015 0.873383 4.08015 2.03789Z" fill="rgb(255,207,45)" fill-rule="nonzero" transform="matrix(0.5,0.866025,-0.866025,0.5,121.835,82.4434)" /> <path id="Vector" d="M4.08016 2.03789C4.08016 3.2024 3.20584 4.07578 2.04008 4.07578C0.874325 4.07578 0 3.2024 0 2.03789C0 0.873383 0.874325 0 2.04008 0C3.20584 0 4.08016 0.873383 4.08016 2.03789Z" fill="rgb(255,207,45)" fill-rule="nonzero" transform="matrix(0.5,0.866025,-0.866025,0.5,130.481,97.4189)" /> <path id="Vector" d="M4.08016 2.03789C4.08016 3.2024 3.20584 4.07578 2.04008 4.07578C0.874318 4.07578 0 3.2024 0 2.03789C0 0.873383 0.874318 0 2.04008 0C3.20584 0 4.08016 0.873383 4.08016 2.03789Z" fill="rgb(255,207,45)" fill-rule="nonzero" transform="matrix(0.5,0.866025,-0.866025,0.5,139.176,112.479)" /> <path id="Vector" d="M4.08015 2.03789C4.08015 3.2024 3.20584 4.07578 2.04008 4.07578C0.874325 4.07578 0 3.2024 0 2.03789C0 0.873383 0.874325 0 2.04008 0C3.1087 0 4.08015 0.873383 4.08015 2.03789Z" fill="rgb(255,207,45)" fill-rule="nonzero" transform="matrix(0.5,0.866025,-0.866025,0.5,147.87,127.538)" /> <path id="Vector" d="M4.08016 2.03789C4.08016 3.2024 3.20584 4.07579 2.04008 4.07579C0.874321 4.07579 0 3.2024 0 2.03789C0 0.873382 0.874321 0 2.04008 0C3.20584 0 4.08016 0.970425 4.08016 2.03789Z" fill="rgb(255,207,45)" fill-rule="nonzero" transform="matrix(0.5,0.866025,-0.866025,0.5,41.0122,28.8213)" /> <path id="Vector" d="M4.08016 2.03789C4.08016 3.2024 3.20584 4.07579 2.04008 4.07579C0.874321 4.07579 0 3.2024 0 2.03789C0 0.873382 0.874321 0 2.04008 0C3.10869 0 4.08016 0.970425 4.08016 2.03789Z" fill="rgb(255,207,45)" fill-rule="nonzero" transform="matrix(0.5,0.866025,-0.866025,0.5,49.7065,43.8809)" /> <path id="Vector" d="M4.08016 2.03789C4.08016 3.2024 3.20584 4.07579 2.04008 4.07579C0.874319 4.07579 0 3.2024 0 2.03789C0 0.873382 0.874319 0 2.04008 0C3.20584 0 4.08016 0.970425 4.08016 2.03789Z" fill="rgb(255,207,45)" fill-rule="nonzero" transform="matrix(0.5,0.866025,-0.866025,0.5,58.3528,58.8564)" /> <path id="Vector" d="M4.08016 2.03789C4.08016 3.2024 3.20584 4.07579 2.04008 4.07579C0.874323 4.07579 0 3.2024 0 2.03789C0 0.873382 0.874323 0 2.04008 0C3.20584 0 4.08016 0.970425 4.08016 2.03789Z" fill="rgb(255,207,45)" fill-rule="nonzero" transform="matrix(0.5,0.866025,-0.866025,0.5,67.0474,73.916)" /> <path id="Vector" d="M4.08015 2.03789C4.08015 3.2024 3.20584 4.07579 2.04008 4.07579C0.874318 4.07579 0 3.2024 0 2.03789C0 0.873382 0.874318 0 2.04008 0C3.10869 0 4.08015 0.970425 4.08015 2.03789Z" fill="rgb(255,207,45)" fill-rule="nonzero" transform="matrix(0.5,0.866025,-0.866025,0.5,75.7422,88.9756)" /> <path id="Vector" d="M4.08015 2.03789C4.08015 3.2024 3.20584 4.07579 2.04008 4.07579C0.874318 4.07579 0 3.2024 0 2.03789C0 0.873382 0.874318 0 2.04008 0C3.20584 0 4.08015 0.970425 4.08015 2.03789Z" fill="rgb(255,207,45)" fill-rule="nonzero" transform="matrix(0.5,0.866025,-0.866025,0.5,84.4365,104.035)" /> <path id="Vector" d="M4.08016 2.03789C4.08016 3.2024 3.20584 4.07579 2.04008 4.07579C0.874325 4.07579 0 3.2024 0 2.03789C0 0.873382 0.874325 0 2.04008 0C3.20584 0 4.08016 0.970425 4.08016 2.03789Z" fill="rgb(255,207,45)" fill-rule="nonzero" transform="matrix(0.5,0.866025,-0.866025,0.5,93.0828,119.011)" /> <path id="Vector" d="M4.08016 2.03789C4.08016 3.2024 3.20584 4.07579 2.04008 4.07579C0.874318 4.07579 0 3.2024 0 2.03789C0 0.873382 0.874318 0 2.04008 0C3.20584 0 4.08016 0.970425 4.08016 2.03789Z" fill="rgb(255,207,45)" fill-rule="nonzero" transform="matrix(0.5,0.866025,-0.866025,0.5,101.777,134.07)" /> <path id="Vector" d="M4.08015 2.03789C4.08015 3.2024 3.20584 4.07579 2.04008 4.07579C0.874325 4.07579 0 3.2024 0 2.03789C0 0.873382 0.874325 0 2.04008 0C3.1087 0 4.08015 0.970425 4.08015 2.03789Z" fill="rgb(255,207,45)" fill-rule="nonzero" transform="matrix(0.5,0.866025,-0.866025,0.5,110.472,149.13)" /> <path id="Vector" d="M4.08016 2.03789C4.08016 3.2024 3.20584 4.07578 2.04008 4.07578C0.874321 4.07578 0 3.2024 0 2.03789C0 0.873381 0.874321 1.37906e-14 2.04008 1.37906e-14C3.20584 0 4.08016 0.873381 4.08016 2.03789Z" fill="rgb(255,207,45)" fill-rule="nonzero" transform="matrix(0.5,0.866025,-0.866025,0.5,28.4902,36.0508)" /> <path id="Vector" d="M4.08016 2.03789C4.08016 3.2024 3.20584 4.07578 2.04008 4.07578C0.874321 4.07578 0 3.2024 0 2.03789C0 0.873381 0.874321 1.37906e-14 2.04008 1.37906e-14C3.10869 0 4.08016 0.873381 4.08016 2.03789Z" fill="rgb(255,207,45)" fill-rule="nonzero" transform="matrix(0.5,0.866025,-0.866025,0.5,37.1846,51.1104)" /> <path id="Vector" d="M4.08016 2.03789C4.08016 3.2024 3.20584 4.07578 2.04008 4.07578C0.874319 4.07578 0 3.2024 0 2.03789C0 0.873381 0.874319 1.37906e-14 2.04008 1.37906e-14C3.20584 0 4.08016 0.873381 4.08016 2.03789Z" fill="rgb(255,207,45)" fill-rule="nonzero" transform="matrix(0.5,0.866025,-0.866025,0.5,45.8308,66.0859)" /> <path id="Vector" d="M2.04008 4.07578C3.16679 4.07578 4.08016 3.16339 4.08016 2.03789C4.08016 0.912394 3.16679 0 2.04008 0C0.913378 0 0 0.912394 0 2.03789C0 3.16339 0.913378 4.07578 2.04008 4.07578Z" fill="rgb(255,207,45)" fill-rule="evenodd" transform="matrix(0.5,0.866025,-0.866025,0.5,54.5254,81.1455)" /> <path id="Vector" d="M4.08015 2.03789C4.08015 3.2024 3.20584 4.07578 2.04008 4.07578C0.874318 4.07578 0 3.2024 0 2.03789C0 0.873381 0.874318 1.37906e-14 2.04008 1.37906e-14C3.10869 0 4.08015 0.873381 4.08015 2.03789Z" fill="rgb(255,207,45)" fill-rule="nonzero" transform="matrix(0.5,0.866025,-0.866025,0.5,63.2202,96.2051)" /> <path id="Vector" d="M4.08015 2.03789C4.08015 3.2024 3.20584 4.07578 2.04008 4.07578C0.874318 4.07578 0 3.2024 0 2.03789C0 0.873381 0.874318 0 2.04008 0C3.20584 0 4.08015 0.873381 4.08015 2.03789Z" fill="rgb(255,207,45)" fill-rule="nonzero" transform="matrix(0.5,0.866025,-0.866025,0.5,71.9146,111.265)" /> <path id="Vector" d="M4.08016 2.03789C4.08016 3.2024 3.20584 4.07578 2.04008 4.07578C0.874325 4.07578 0 3.2024 0 2.03789C0 0.873381 0.874325 0 2.04008 0C3.20584 0 4.08016 0.873381 4.08016 2.03789Z" fill="rgb(255,207,45)" fill-rule="nonzero" transform="matrix(0.5,0.866025,-0.866025,0.5,80.5608,126.24)" /> <path id="Vector" d="M2.04008 4.07578C3.16678 4.07578 4.08016 3.16339 4.08016 2.03789C4.08016 0.912394 3.16678 0 2.04008 0C0.913373 0 0 0.912394 0 2.03789C0 3.16339 0.913373 4.07578 2.04008 4.07578Z" fill="rgb(255,207,45)" fill-rule="evenodd" transform="matrix(0.5,0.866025,-0.866025,0.5,89.2554,141.3)" /> <path id="Vector" d="M4.08015 2.03789C4.08015 3.2024 3.20584 4.07578 2.04008 4.07578C0.874325 4.07578 0 3.2024 0 2.03789C0 0.873381 0.874325 1.37906e-14 2.04008 1.37906e-14C3.1087 0 4.08015 0.873381 4.08015 2.03789Z" fill="rgb(255,207,45)" fill-rule="nonzero" transform="matrix(0.5,0.866025,-0.866025,0.5,97.9502,156.359)" /> <path id="Vector" d="M4.08016 2.0379C4.08016 3.20241 3.20584 4.07579 2.04008 4.07579C0.874321 4.07579 0 3.20241 0 2.0379C0 0.873389 0.874321 0 2.04008 0C3.20584 0 4.08016 0.873389 4.08016 2.0379Z" fill="rgb(255,207,45)" fill-rule="nonzero" transform="matrix(0.5,0.866025,-0.866025,0.5,15.9678,43.2812)" /> <path id="Vector" d="M4.08016 2.0379C4.08016 3.20241 3.20584 4.07579 2.04008 4.07579C0.874321 4.07579 0 3.20241 0 2.0379C0 0.873389 0.874321 0 2.04008 0C3.10869 0 4.08016 0.873389 4.08016 2.0379Z" fill="rgb(255,207,45)" fill-rule="nonzero" transform="matrix(0.5,0.866025,-0.866025,0.5,24.6624,58.3408)" /> <path id="Vector" d="M4.08016 2.0379C4.08016 3.20241 3.20584 4.07579 2.04008 4.07579C0.874319 4.07579 0 3.20241 0 2.0379C0 0.873389 0.874319 0 2.04008 0C3.20584 0 4.08016 0.873389 4.08016 2.0379Z" fill="rgb(255,207,45)" fill-rule="nonzero" transform="matrix(0.5,0.866025,-0.866025,0.5,33.3083,73.3164)" /> <path id="Vector" d="M4.08016 2.0379C4.08016 3.20241 3.20584 4.07579 2.04008 4.07579C0.874323 4.07579 0 3.20241 0 2.0379C0 0.873389 0.874323 0 2.04008 0C3.20584 0 4.08016 0.873389 4.08016 2.0379Z" fill="rgb(255,207,45)" fill-rule="nonzero" transform="matrix(0.5,0.866025,-0.866025,0.5,42.0029,88.376)" /> <path id="Vector" d="M4.08015 2.0379C4.08015 3.20241 3.20584 4.07579 2.04008 4.07579C0.874318 4.07579 0 3.20241 0 2.0379C0 0.873389 0.874318 0 2.04008 0C3.10869 0 4.08015 0.873389 4.08015 2.0379Z" fill="rgb(255,207,45)" fill-rule="nonzero" transform="matrix(0.5,0.866025,-0.866025,0.5,50.6978,103.436)" /> <path id="Vector" d="M4.08015 2.0379C4.08015 3.20241 3.20584 4.07579 2.04008 4.07579C0.874318 4.07579 0 3.20241 0 2.0379C0 0.873389 0.874318 0 2.04008 0C3.20584 0 4.08015 0.873389 4.08015 2.0379Z" fill="rgb(255,207,45)" fill-rule="nonzero" transform="matrix(0.5,0.866025,-0.866025,0.5,59.3923,118.495)" /> <path id="Vector" d="M4.08016 2.0379C4.08016 3.20241 3.20584 4.07579 2.04008 4.07579C0.874325 4.07579 0 3.20241 0 2.0379C0 0.873389 0.874325 0 2.04008 0C3.20584 0 4.08016 0.873389 4.08016 2.0379Z" fill="rgb(255,207,45)" fill-rule="nonzero" transform="matrix(0.5,0.866025,-0.866025,0.5,68.0383,133.47)" /> <path id="Vector" d="M4.08016 2.0379C4.08016 3.20241 3.20584 4.07579 2.04008 4.07579C0.874318 4.07579 0 3.20241 0 2.0379C0 0.873389 0.874318 0 2.04008 0C3.20584 0 4.08016 0.873389 4.08016 2.0379Z" fill="rgb(255,207,45)" fill-rule="nonzero" transform="matrix(0.5,0.866025,-0.866025,0.5,76.7329,148.529)" /> <path id="Vector" d="M4.08015 2.0379C4.08015 3.20241 3.20584 4.07579 2.04008 4.07579C0.874325 4.07579 0 3.20241 0 2.0379C0 0.873389 0.874325 0 2.04008 0C3.1087 0 4.08015 0.873389 4.08015 2.0379Z" fill="rgb(255,207,45)" fill-rule="nonzero" transform="matrix(0.5,0.866025,-0.866025,0.5,85.4277,163.589)" /> <path id="Vector" d="M4.08016 2.0379C4.08016 3.20241 3.20584 4.07579 2.04008 4.07579C0.874321 4.07579 0 3.20241 0 2.0379C0 0.873383 0.874321 0 2.04008 0C3.20584 0 4.08016 0.970425 4.08016 2.0379Z" fill="rgb(255,207,45)" fill-rule="nonzero" transform="matrix(0.5,0.866025,-0.866025,0.5,3.52954,50.4619)" /> <path id="Vector" d="M4.08016 2.0379C4.08016 3.20241 3.20584 4.07579 2.04008 4.07579C0.874321 4.07579 0 3.20241 0 2.0379C0 0.873383 0.874321 0 2.04008 0C3.10869 0 4.08016 0.970425 4.08016 2.0379Z" fill="rgb(255,207,45)" fill-rule="nonzero" transform="matrix(0.5,0.866025,-0.866025,0.5,12.2241,65.5215)" /> <path id="Vector" d="M4.08016 2.0379C4.08016 3.20241 3.20584 4.07579 2.04008 4.07579C0.874319 4.07579 0 3.20241 0 2.0379C0 0.873383 0.874319 0 2.04008 0C3.20584 0 4.08016 0.970425 4.08016 2.0379Z" fill="rgb(255,207,45)" fill-rule="nonzero" transform="matrix(0.5,0.866025,-0.866025,0.5,20.8704,80.4971)" /> <path id="Vector" d="M4.08016 2.0379C4.08016 3.20241 3.20584 4.07579 2.04008 4.07579C0.874323 4.07579 0 3.20241 0 2.0379C0 0.873383 0.874323 0 2.04008 0C3.20584 0 4.08016 0.970425 4.08016 2.0379Z" fill="rgb(255,207,45)" fill-rule="nonzero" transform="matrix(0.5,0.866025,-0.866025,0.5,29.5649,95.5566)" /> <path id="Vector" d="M4.08015 2.0379C4.08015 3.20241 3.20584 4.07579 2.04008 4.07579C0.874318 4.07579 0 3.20241 0 2.0379C0 0.873383 0.874318 0 2.04008 0C3.10869 0 4.08015 0.970425 4.08015 2.0379Z" fill="rgb(255,207,45)" fill-rule="nonzero" transform="matrix(0.5,0.866025,-0.866025,0.5,38.2595,110.616)" /> <path id="Vector" d="M4.08015 2.0379C4.08015 3.20241 3.20584 4.07579 2.04008 4.07579C0.874318 4.07579 0 3.20241 0 2.0379C0 0.873383 0.874318 0 2.04008 0C3.20584 0 4.08015 0.970425 4.08015 2.0379Z" fill="rgb(255,207,45)" fill-rule="nonzero" transform="matrix(0.5,0.866025,-0.866025,0.5,46.9541,125.676)" /> <path id="Vector" d="M4.08016 2.0379C4.08016 3.20241 3.20584 4.07579 2.04008 4.07579C0.874325 4.07579 0 3.20241 0 2.0379C0 0.873383 0.874325 0 2.04008 0C3.20584 0 4.08016 0.970425 4.08016 2.0379Z" fill="rgb(255,207,45)" fill-rule="nonzero" transform="matrix(0.5,0.866025,-0.866025,0.5,55.6003,140.651)" /> <path id="Vector" d="M4.08016 2.0379C4.08016 3.20241 3.20584 4.07579 2.04008 4.07579C0.874318 4.07579 0 3.20241 0 2.0379C0 0.873383 0.874318 0 2.04008 0C3.20584 0 4.08016 0.970425 4.08016 2.0379Z" fill="rgb(255,207,45)" fill-rule="nonzero" transform="matrix(0.5,0.866025,-0.866025,0.5,64.2949,155.711)" /> <path id="Vector" d="M4.08015 2.0379C4.08015 3.20241 3.20584 4.07579 2.04008 4.07579C0.874325 4.07579 0 3.20241 0 2.0379C0 0.873383 0.874325 0 2.04008 0C3.1087 0 4.08015 0.970425 4.08015 2.0379Z" fill="rgb(255,207,45)" fill-rule="nonzero" transform="matrix(0.5,0.866025,-0.866025,0.5,72.9895,170.771)" /></symbol>
  <symbol id="icon-img-2" viewBox="0 0 84.999 85"><g opacity="0.200000003"> <path id="Vector" d="M28.0666 17.5116L28.0666 28.0666L0 28.0666L0 0L10.475 0L10.475 17.5116L28.0666 17.5116Z" fill="rgb(255,207,45)" fill-rule="nonzero" transform="matrix(-1,8.74228e-08,-8.74228e-08,-1,84.999,28.0674)" /> <path id="Vector" d="M28.0666 17.5116L28.0666 27.9866L0 27.9866L0 0L10.555 0L10.555 17.5116L28.0666 17.5116Z" fill="rgb(255,207,45)" fill-rule="nonzero" transform="matrix(-1,8.74228e-08,-8.74228e-08,-1,66.0491,47.0176)" /> <path id="Vector" d="M27.9866 17.5116L27.9866 28.0666L0 28.0666L0 0L10.475 0L10.475 17.5116L27.9866 17.5116Z" fill="rgb(255,207,45)" fill-rule="nonzero" transform="matrix(-1,8.74228e-08,-8.74228e-08,-1,47.0178,66.0488)" /> <path id="Vector" d="M28.0666 17.5116L28.0666 28.0666L0 28.0666L0 0L10.555 0L10.555 17.5116L28.0666 17.5116Z" fill="rgb(255,207,45)" fill-rule="nonzero" transform="matrix(-1,8.74228e-08,-8.74228e-08,-1,28.0667,85)" /> </g></symbol>
  <symbol id="icon-img-3" viewBox="0 0 83 44"><rect id="shapes" width="83.000000" height="44.000000" x="0.000000" y="0.000000" /> <path id="Vector" d="M31.1791 25.8392C24.0593 32.959 12.4596 32.959 5.33984 25.8392C-1.77995 18.7194 -1.77995 7.11979 5.33984 0L31.1791 25.8392Z" fill="rgb(255,207,45)" fill-rule="nonzero" transform="matrix(-0.709998,0.704203,0.709998,0.704203,66.4995,0)" /> <path id="Vector" d="M31.1791 25.8392C24.0593 32.959 12.4596 32.959 5.33984 25.8392C-1.77995 18.7194 -1.77995 7.11979 5.33984 0L31.1791 25.8392Z" fill="rgb(255,207,45)" fill-rule="nonzero" transform="matrix(-0.709998,0.704203,0.709998,0.704203,37.8789,0)" /> <path id="Vector" d="M31.1791 25.8392C24.0593 32.959 12.4596 32.959 5.33984 25.8392C-1.77995 18.7194 -1.77995 7.11979 5.33984 0L31.1791 25.8392Z" fill="rgb(255,207,45)" fill-rule="nonzero" transform="matrix(-0.709998,0.704203,0.709998,0.704203,9.2583,0)" /></symbol>
  <symbol id="icon-search" viewBox="0 0 16 16"><rect id="search" width="16.000000" height="16.000000" x="0.000000" y="0.000000" /> <path id="Vector (Stroke)" d="M7.25016 2.16634C4.44272 2.16634 2.16683 4.44223 2.16683 7.24967C2.16683 10.0571 4.44272 12.333 7.25016 12.333C8.65276 12.333 9.92161 11.7658 10.842 10.8467C11.7642 9.92589 12.3335 8.6549 12.3335 7.24967C12.3335 4.44223 10.0576 2.16634 7.25016 2.16634ZM0.833496 7.24967C0.833496 3.70585 3.70634 0.833008 7.25016 0.833008C10.794 0.833008 13.6668 3.70585 13.6668 7.24967C13.6668 8.78248 13.1287 10.1905 12.2321 11.2939L14.9711 14.0278C15.2317 14.2879 15.2321 14.7101 14.972 14.9706C14.7119 15.2312 14.2898 15.2316 14.0292 14.9715L11.2888 12.2362C10.1863 13.13 8.78039 13.6663 7.25016 13.6663C3.70634 13.6663 0.833496 10.7935 0.833496 7.24967Z" fill="rgb(153.708,156.453,164.688)" fill-rule="evenodd" /></symbol>
</svg>